<?xml version="1.0" encoding="utf-8"?>
<!-- Svg Vector Icons : http://www.onlinewebfonts.com/icon -->
<!DOCTYPE svg PUBLIC "-//W3C//DTD SVG 1.1//EN" "http://www.w3.org/Graphics/SVG/1.1/DTD/svg11.dtd">
<svg version="1.1" xmlns="http://www.w3.org/2000/svg" xmlns:xlink="http://www.w3.org/1999/xlink" x="0px" y="0px" viewBox="0 0 256 256" enable-background="new 0 0 256 256" xml:space="preserve">
<metadata> Svg Vector Icons : http://www.onlinewebfonts.com/icon </metadata>
<g><g><g><path stroke-width="2" fill-opacity="0" stroke="#000000"  d="M84.3,11.2c-14.2,5.9-26.8,14.6-38.8,26.6c-8.6,8.6-14.1,15.8-19.8,25.8C5.5,99.3,4.7,144,23.8,180.4c16.6,31.5,46.3,54.6,80.7,62.6c9,2.1,16.9,3,27.3,3c14.4,0,25.1-1.6,38-5.8c19.1-6.2,34.1-15.5,48.8-30c7.5-7.5,13.1-14.6,17.9-22.3c2.6-4.2,8.6-16.3,9.2-18.4l0.3-1l-3.4,1.2c-5.4,1.9-16.8,4.6-22.9,5.6c-7,1.1-26.9,1.3-33.4,0.3c-13.8-2.1-26.6-6-38.1-11.7c-24.4-12.1-43.9-31.6-55.9-55.9c-5.7-11.7-9.3-23.1-11.5-36.7c-1.2-7.3-1.2-27.1,0-34.6c1.2-7.4,2.9-14.6,5-21c1-3,1.6-5.4,1.4-5.4C87.2,10.1,85.8,10.6,84.3,11.2z"/><path stroke-width="2" fill-opacity="0" stroke="#000000"  d="M199.8,20.1c-4.3,3.4-8.1,6.2-8.4,6.2c-0.3,0-4.2-2.5-8.6-5.5c-4.5-3.1-8.3-5.6-8.4-5.6s0.9,3.3,2.3,7.3c1.4,4,3,8.4,3.4,9.7l0.8,2.4l-8.3,6.4c-4.6,3.5-8.3,6.4-8.2,6.4c0.1,0,4.7,0,10.3-0.2c5.6-0.1,10.3-0.1,10.5,0c0.1,0.1,1.8,4.6,3.7,9.9c1.9,5.3,3.5,9.5,3.5,9.3c0.1-0.2,1.4-4.6,2.9-9.8c1.5-5.2,3.1-9.7,3.4-9.9c0.3-0.2,4-0.4,8.3-0.4c4.2,0,8.7-0.1,9.8-0.3l2.2-0.3l-8-5.5c-4.4-3-8.2-5.8-8.4-6.1s0.6-4.1,2.5-10.3c1.5-5.3,2.8-9.7,2.7-9.7C207.7,14,204.2,16.7,199.8,20.1z"/><path stroke-width="2" fill-opacity="0" stroke="#000000"  d="M130.5,58.5c-0.3,0.7-1.4,4.1-2.5,7.5l-1.9,6.2H118c-6.4,0-7.9,0.1-7.6,0.6c0.3,0.3,3.1,2.5,6.3,4.7c3.2,2.3,5.8,4.4,5.8,4.7c0,0.3-1,3.7-2.3,7.7c-1.3,3.9-2.2,7.1-2.1,7.2c0,0,3-2,6.5-4.5l6.4-4.6l6.4,4.6c3.5,2.5,6.4,4.5,6.5,4.5c0.1-0.1-0.9-3.4-2.2-7.4c-1.3-4-2.3-7.5-2.1-7.7c0.1-0.2,3.1-2.4,6.5-4.9l6.3-4.6l-8.2-0.2l-8.2-0.2l-2.5-7.4C131.2,57.5,131,57.3,130.5,58.5z"/><path stroke-width="2" fill-opacity="0" stroke="#000000"  d="M179.6,80.7c0,0.3-0.8,7.1-1.7,15.2l-1.7,14.6l-15,3c-8.2,1.7-14.8,3.2-14.6,3.3c0.2,0.2,6.4,3.1,13.8,6.5c7.4,3.3,13.5,6.1,13.5,6.2c0,0-2.7,24.1-3.3,28.9c-0.2,1.9-0.1,1.9,10.2-9.4c5.8-6.3,10.6-11.4,10.7-11.4c0.1,0,6.4,2.8,14,6.3c7.6,3.4,13.8,6.2,13.8,6.2c0.1-0.1-3.2-6-7.2-13.1c-4-7.1-7.4-13.2-7.4-13.5c0-0.3,4.6-5.5,10.2-11.6c5.6-6.1,10.1-11.1,10.1-11.2s-6.8,1.3-14.9,2.9c-14,2.8-14.9,2.9-15.5,2.2c-0.3-0.5-3.8-6.4-7.6-13.3c-3.8-6.8-7.1-12.4-7.1-12.4S179.6,80.4,179.6,80.7z"/></g></g></g>
</svg>