<?xml version="1.0" encoding="utf-8"?>
<!-- Svg Vector Icons : http://www.onlinewebfonts.com/icon -->
<!DOCTYPE svg PUBLIC "-//W3C//DTD SVG 1.1//EN" "http://www.w3.org/Graphics/SVG/1.1/DTD/svg11.dtd">
<svg version="1.1" xmlns="http://www.w3.org/2000/svg" xmlns:xlink="http://www.w3.org/1999/xlink" x="0px" y="0px" viewBox="0 0 256 256" enable-background="new 0 0 256 256" xml:space="preserve">
<metadata> Svg Vector Icons : http://www.onlinewebfonts.com/icon </metadata>
<g><g><path fill="#000000" d="M246,162.8c0-16.1-7.1-30.6-18.3-40.5c8.2-7.3,14.4-16.5,18-26.9c0.7-2,0.2-4.1-1.3-5.6c-1.4-1.5-3.6-2-5.6-1.3c-5.6,1.9-11.3,2.8-17.1,2.8c-29.4,0-53.2-23.9-53.2-53.2c0-5.9,1-11.7,3-17.4c0.7-2,0.2-4.1-1.3-5.6s-3.6-2-5.6-1.3c-26.1,8.8-43.6,33.2-43.6,60.6c0,0.7,0.1,1.3,0.1,2c-1.2,0-2.3-0.2-3.5-0.2c-37,0-67.4,28.7-70.1,64.9C26.8,141.3,10,158.2,10,179c0,20.9,17,37.9,37.9,37.9h8.2c1.3,14.3,13.2,25.6,27.9,25.6h105.2c21.8,0,39.5-17.7,39.5-39.5c0-0.2,0-0.4,0-0.6C239.6,192.2,246,178,246,162.8L246,162.8L246,162.8z M131.9,74.5c0-19.2,10.3-36.6,26.5-46c-0.5,3.2-0.7,6.4-0.7,9.6c0,35.3,28.8,64,64.1,64c3.1,0,6.2-0.2,9.2-0.7c-3.2,5.5-7.5,10.3-12.4,14.3c-7.9-4.5-17-7.1-26.7-7.1c-4.6,0-9.2,0.6-13.8,1.8c-10.2-17-26.9-28.7-45.9-32.6C132.1,76.7,131.9,75.6,131.9,74.5L131.9,74.5L131.9,74.5z M189.1,231.7H83.9c-9.5,0-17.3-7.8-17.3-17.3c0-9.5,7.8-17.3,17.3-17.3c0.9,0,1.8,0.1,2.6,0.2l6.2,0.7v-6.3c0-22.1,17.9-40,40-40c15.5,0,29.7,9.1,36.3,23.2l2.3,5.1l5-2.5c4-2,8.4-3.1,12.8-3.1c15.8,0,28.7,12.9,28.7,28.7C217.8,218.8,204.9,231.7,189.1,231.7L189.1,231.7L189.1,231.7z M189.1,163.6c-4.4,0-8.6,0.7-12.8,2.1c-9.1-15.2-25.7-24.8-43.6-24.8c-26.1,0-47.7,19.8-50.5,45.5c-11.9,0.7-21.6,8.8-25,19.8h-9.3c-14.9,0-27.1-12.1-27.1-27.1S33,152,47.9,152c1.2,0,2.5,0.1,4.1,0.4l6.2,0.5v-6.3c0-32.8,26.7-59.5,59.5-59.5c22.4,0,42.7,12.4,52.9,32.4l2.2,4.2l4.5-1.6c4.7-1.7,9.6-2.6,14.5-2.6c23.9,0,43.3,19.4,43.3,43.3c0,9.7-3.3,19-9.1,26.5C220.5,174.3,206.1,163.6,189.1,163.6L189.1,163.6L189.1,163.6z"/></g></g>
</svg>