<?xml version="1.0" encoding="utf-8"?>
<!-- Svg Vector Icons : http://www.onlinewebfonts.com/icon -->
<!DOCTYPE svg PUBLIC "-//W3C//DTD SVG 1.1//EN" "http://www.w3.org/Graphics/SVG/1.1/DTD/svg11.dtd">
<svg version="1.1" xmlns="http://www.w3.org/2000/svg" xmlns:xlink="http://www.w3.org/1999/xlink" x="0px" y="0px" viewBox="0 0 256 256" enable-background="new 0 0 256 256" xml:space="preserve">
<metadata> Svg Vector Icons : http://www.onlinewebfonts.com/icon </metadata>
<g><g><g><path fill="#000000" d="M90.3,37.4v17.8h4.4H99V37.4V19.6h-4.4h-4.4V37.4z"/><path fill="#000000" d="M34.8,44.4l-3.1,3.1l12.6,12.6l12.5,12.5l3.2-3.2l3.2-3.2L50.8,53.8C44,46.9,38.3,41.3,38.1,41.3C38,41.3,36.5,42.7,34.8,44.4z"/><path fill="#000000" d="M138.8,53.9l-12.5,12.5l3.1,3.1l3.1,3.1l12.6-12.6l12.5-12.5l-3.1-3.1l-3.1-3.1L138.8,53.9z"/><path fill="#000000" d="M89.6,63C75.9,64.8,64.5,72.7,58,84.8c-3.1,5.7-4.3,10.3-4.5,17.3c-0.3,6.9,0.5,11.6,2.7,17.2c1.6,4,5.5,10.1,8.2,12.8l1.9,1.9l-3.2,0.7c-9.8,2.3-17.2,6.2-23.8,12.9c-8,8-12.4,18.1-13.7,31.5c-0.5,5.3-0.2,11.2,0.9,16.4c0.2,1,0.1,1.2-0.6,1.2c-3.1,0-10.5,5.4-12.8,9.4c-3.1,5.3-3.5,12.8-0.8,18.4c2.7,5.7,8.4,10.2,14.6,11.4c2,0.4,28.1,0.5,98,0.4l95.3-0.1l3.7-1.2c5.3-1.8,9.2-4.2,13.1-8.2c3.9-3.9,6.2-7.8,7.9-13.4c1.6-5,1.5-12.2-0.2-17.3c-1.7-5.1-4.2-9.1-7.9-12.9c-5.2-5.2-11.9-8.4-18.9-9.2l-2.8-0.3l0.1-6.6c0.5-17.2-4.4-33.5-13.6-45.6c-3.7-4.9-10.9-11.9-15.6-15c-7.7-5.2-17.2-8.9-27.2-10.8c-4.5-0.9-7.2-1.1-14.8-1.1l-9.3,0l-1-3.2C128.8,76.1,115.2,65,99,63C94.7,62.5,93.6,62.5,89.6,63z M104.3,73.3c5.4,1.8,8.3,3.7,12.7,8.1c3.4,3.4,4.3,4.6,6.1,8.4c1.2,2.4,2.2,4.9,2.4,5.6c0.2,1.1,0.1,1.2-2.2,1.8c-6.4,1.6-15.7,6-22.2,10.6c-7.3,5.2-16.1,14.6-20.1,21.7c-0.9,1.6-1.8,2.9-2,2.9c-0.8,0-6.2-4.2-8.5-6.7c-8.1-8.9-10.6-22.7-6-33.7c4.1-9.8,12.7-17,23.1-19.4C92.2,71.4,99.8,71.8,104.3,73.3z M156.7,104.5c13,2.2,23.9,7.7,32.6,16.3c6.3,6.3,10.8,13.6,13.6,22.1c3.7,11.2,4.3,21.5,2.3,35.8c-0.2,1.7-0.5,3.1-0.5,3.3c0,0.1,3,0.4,6.6,0.6c3.6,0.2,7.7,0.6,8.9,0.9c7.7,2,14.5,9,16.2,16.5c0.6,2.6,0.6,7.5,0,10.1c-1.4,6.2-6.1,11.9-12.3,14.9l-3.9,1.9l-96,0.1C16,227.3,26,227.6,22.3,223.5c-3.5-3.9-4-8.6-1.3-12.9c2.1-3.4,4.2-4.5,10.8-5.8c3.1-0.6,5.8-1.2,5.9-1.3c0-0.1-0.6-2.7-1.3-5.9c-2.5-10.2-2.4-20.4,0.6-29.2c3.8-11.5,11.3-19.2,22.5-23.3c5.5-2,10.8-2.8,18.4-2.8l6.6,0l1.8-3.6c8.6-17.1,23.3-28.9,41.6-33.4C136.6,103,146.1,102.8,156.7,104.5z"/><path fill="#000000" d="M10.3,99.7c-0.2,0.1-0.3,2.2-0.3,4.6v4.3h17.8h17.8V104v-4.6H28.1C18.5,99.4,10.5,99.6,10.3,99.7z"/></g></g></g>
</svg>