<?xml version="1.0" encoding="utf-8"?>
<!-- Svg Vector Icons : http://www.onlinewebfonts.com/icon -->
<!DOCTYPE svg PUBLIC "-//W3C//DTD SVG 1.1//EN" "http://www.w3.org/Graphics/SVG/1.1/DTD/svg11.dtd">
<svg version="1.1" xmlns="http://www.w3.org/2000/svg" xmlns:xlink="http://www.w3.org/1999/xlink" x="0px" y="0px" viewBox="0 0 256 256" enable-background="new 0 0 256 256" xml:space="preserve">
<metadata> Svg Vector Icons : http://www.onlinewebfonts.com/icon </metadata>
<g><g><path fill="#000000" d="M172.1,227.4h-87c-26.4,0-47.8-21.4-47.8-47.6c0-26.2,21.5-47.6,47.8-47.6c5.4,0,10.6,0.9,15.6,2.6c8.6-32.1,37.8-54.9,71.4-54.9c40.8,0,73.9,33.1,73.9,73.8C246,194.3,212.8,227.4,172.1,227.4z M85.1,140.9c-21.6,0-39.1,17.5-39.1,38.9s17.6,38.9,39.1,38.9h87c36,0,65.2-29.2,65.2-65c0-35.9-29.3-65.1-65.2-65.1c-31.2,0-58.2,22.3-64.1,52.9c-0.3,1.3-1.1,2.5-2.3,3.1c-1.2,0.6-2.6,0.6-3.8,0C96.6,142.1,91,140.9,85.1,140.9z"/><path fill="#000000" d="M30.6,151.6c-1.2,0-2.5-0.5-3.3-1.5c-13.6-16.2-19.7-37.6-16.5-58.5c0.2-1.4,1.1-2.6,2.3-3.2c1.3-0.7,2.7-0.7,3.9,0C32.2,95.9,50.4,93,62.4,81c12-12,14.9-30.2,7.3-45.3c-0.6-1.3-0.6-2.7,0-3.9c0.7-1.2,1.8-2.1,3.2-2.3c23.1-3.5,46.8,4.3,63.3,20.8c4.8,4.8,8.9,10.2,12.2,16.2c1.2,2.1,0.4,4.7-1.7,5.9c-2.1,1.2-4.7,0.4-5.9-1.7c-2.9-5.2-6.6-10-10.8-14.3c-13.3-13.2-31.7-20.1-50.3-19c6.1,17.2,1.9,36.5-11.3,49.7C55.4,100.3,36,104.6,18.8,98.5c-1,16.6,4.4,33.1,15.1,46c1.5,1.8,1.3,4.6-0.5,6.1C32.6,151.3,31.6,151.6,30.6,151.6z"/></g></g>
</svg>