<?xml version="1.0" encoding="utf-8"?>
<!-- Svg Vector Icons : http://www.onlinewebfonts.com/icon -->
<!DOCTYPE svg PUBLIC "-//W3C//DTD SVG 1.1//EN" "http://www.w3.org/Graphics/SVG/1.1/DTD/svg11.dtd">
<svg version="1.1" xmlns="http://www.w3.org/2000/svg" xmlns:xlink="http://www.w3.org/1999/xlink" x="0px" y="0px" viewBox="0 0 256 256" enable-background="new 0 0 256 256" xml:space="preserve">
<metadata> Svg Vector Icons : http://www.onlinewebfonts.com/icon </metadata>
<g><g><path fill="#000000" d="M36.3,121H17c-3.9,0-7,3.1-7,7s3.1,7,7,7h19.3c3.9,0,7-3.1,7-7S40.2,121,36.3,121z"/><path fill="#000000" d="M128,43.3c3.9,0,7-3.1,7-7V17c0-3.9-3.1-7-7-7s-7,3.1-7,7v19.3C121,40.1,124.1,43.3,128,43.3z"/><path fill="#000000" d="M58,188.1l-13.6,13.6c-2.7,2.7-2.7,7.2,0,9.9c2.7,2.7,7.2,2.7,9.9,0L67.9,198c2.7-2.7,2.7-7.2,0-9.9C65.2,185.3,60.8,185.3,58,188.1z"/><path fill="#000000" d="M58.2,68.2c2.7,2.7,7.2,2.7,9.9,0c2.7-2.7,2.7-7.2,0-9.9L54.5,44.7c-2.7-2.7-7.2-2.7-9.9,0c-2.7,2.7-2.7,7.2,0,9.9L58.2,68.2z"/><path fill="#000000" d="M197.7,68.2l13.6-13.6c2.7-2.7,2.7-7.2,0-9.9c-2.7-2.7-7.2-2.7-9.9,0l-13.6,13.6c-2.7,2.7-2.7,7.2,0,9.9C190.5,71,194.9,71,197.7,68.2z"/><path fill="#000000" d="M239,121h-19.3c-3.9,0-7,3.1-7,7s3.1,7,7,7H239c3.9,0,7-3.1,7-7S242.9,121,239,121z"/><path fill="#000000" d="M197.8,188.1c-2.7-2.7-7.2-2.7-9.9,0c-2.7,2.7-2.7,7.2,0,9.9l13.6,13.6c2.7,2.7,7.2,2.7,9.9,0c2.7-2.7,2.7-7.2,0-9.9L197.8,188.1z"/><path fill="#000000" d="M127.9,60.9c-37.1,0-67.3,30.2-67.3,67.2c0,37.1,30.2,67.2,67.3,67.2s67.2-30.2,67.2-67.2C195.1,91.1,164.9,60.9,127.9,60.9z M127.9,182.4c-29.9,0-54.2-24.3-54.2-54.2c0-29.9,24.3-54.2,54.2-54.2c29.9,0,54.2,24.3,54.2,54.2C182.1,158,157.7,182.4,127.9,182.4z"/><path fill="#000000" d="M128,212.7c-3.9,0-7,3.1-7,7V239c0,3.9,3.1,7,7,7s7-3.1,7-7v-19.3C135,215.8,131.9,212.7,128,212.7z"/></g></g>
</svg>